<svg xmlns="http://www.w3.org/2000/svg" data-name="Layer 1" viewBox="0 0 32 40" x="0px" y="0px"><path d="M31,8a2.9629,2.9629,0,0,0-.3983-1.4651L20.67,15.2557,30.7,25.2853A2.9673,2.9673,0,0,0,31,24Z"/><path d="M13.4365,14.4844l1.9121,1.64a.9938.9938,0,0,0,1.3018.0005l1.93-1.6538,10.5055-9.26A2.9733,2.9733,0,0,0,28,5H4a2.9614,2.9614,0,0,0-.9718.1755Z"/><path d="M19.1644,16.5781l-1.2123,1.0645a3.0989,3.0989,0,0,1-3.9052-.0005l-1.2251-1.05L2.7147,26.6993A2.9646,2.9646,0,0,0,4,27H28a2.965,2.965,0,0,0,1.2854-.3007Z"/><path d="M1.447,6.4453A2.9691,2.9691,0,0,0,1,8V24a2.9659,2.9659,0,0,0,.3006,1.2853L11.3152,15.27Z"/><text x="0" y="47" fill="#000000" font-size="5px" font-weight="bold" font-family="'Helvetica Neue', Helvetica, Arial-Unicode, Arial, Sans-serif">Created by iconpixel</text><text x="0" y="52" fill="#000000" font-size="5px" font-weight="bold" font-family="'Helvetica Neue', Helvetica, Arial-Unicode, Arial, Sans-serif">from the Noun Project</text></svg>